<svg xmlns="http://www.w3.org/2000/svg" xmlns:xlink="http://www.w3.org/1999/xlink" viewBox="0 0 344 310.03"><defs><style>.cls-1{fill:#fff;}.cls-2{fill:#f6a316;}.cls-3{fill:#e52421;}.cls-4{fill:#078136;}.cls-5{fill:#462778;}.cls-6{fill:#2a4b9b;}.cls-7{fill:#f3e600;}.cls-8{fill:#c688bb;}.cls-9{opacity:0.5;}</style><symbol id="MainLogo" data-name="MainLogo" viewBox="0 0 284.45 256.36"><path class="cls-1" d="M174.92,54.58a43.57,43.57,0,0,0-32.76,14.8,43.67,43.67,0,1,0-59.83,63.15l59.88,59.83L202,132.5a43.67,43.67,0,0,0-27.1-77.92ZM163.5,120.85l-21.29,21.3-21.3-21.29A15.54,15.54,0,1,1,142.2,98.39a15.54,15.54,0,1,1,21.3,22.46Z"/><path class="cls-2" d="M193.32,58.68l50.81-32.4a74.52,74.52,0,0,0-92.41.47l3.47,32.69a43.68,43.68,0,0,1,38.13-.76Z"/><path class="cls-3" d="M129.27,59.44l3.46-32.69a74.52,74.52,0,0,0-92.41-.47l50.81,32.4a43.7,43.7,0,0,1,38.14.76Z"/><polyline class="cls-4" points="244.52 143.61 244 144.13 196.44 138.44 177.65 157.25 191.68 196.49"/><polygon class="cls-5" points="92.8 196.43 106.81 157.22 88.03 138.44 40.46 144.13 39.99 143.66 92.86 196.49 92.86 196.49 92.8 196.43"/><polygon class="cls-6" points="179.47 208.71 159.11 175.8 142.27 192.65 125.37 175.76 105.02 208.64 104.81 208.44 104.81 208.44 142.31 245.9 179.47 208.71"/><path class="cls-7" d="M250.84,32.18,210.15,72.33A43.73,43.73,0,0,1,214,118.24l41.78,14.31a74.57,74.57,0,0,0-4.95-100.37Z"/><path class="cls-8" d="M74.31,72.33,33.61,32.18a74.57,74.57,0,0,0-4.95,100.37l41.78-14.31a43.71,43.71,0,0,1,3.87-45.91Z"/><polygon class="cls-6" points="125.37 175.76 142.27 192.65 159.11 175.8 142.23 148.53 125.37 175.76"/><path class="cls-2" d="M193.32,58.68a43.68,43.68,0,0,0-38.13.76l2.33,22.08Z"/><path class="cls-7" d="M210.15,72.33l-33.56,33.1L214,118.24a43.73,43.73,0,0,0-3.86-45.91Z"/><path class="cls-3" d="M129.27,59.44a43.7,43.7,0,0,0-38.14-.76l35.8,22.84Z"/><polygon class="cls-4" points="177.65 157.25 196.44 138.44 169.79 135.26 177.65 157.25"/><polygon class="cls-5" points="114.66 135.26 88.03 138.44 106.81 157.22 114.66 135.26"/><path class="cls-8" d="M74.31,72.33a43.71,43.71,0,0,0-3.87,45.91l37.42-12.81Z"/><g class="cls-9"><polygon class="cls-1" points="125.37 175.76 142.27 192.65 159.11 175.8 142.23 148.53 125.37 175.76"/><path class="cls-1" d="M193.32,58.68a43.68,43.68,0,0,0-38.13.76l2.33,22.08Z"/><path class="cls-1" d="M210.15,72.33l-33.56,33.1L214,118.24a43.73,43.73,0,0,0-3.86-45.91Z"/><path class="cls-1" d="M129.27,59.44a43.7,43.7,0,0,0-38.14-.76l35.8,22.84Z"/><polygon class="cls-1" points="177.65 157.25 196.44 138.44 169.79 135.26 177.65 157.25"/><polygon class="cls-1" points="114.66 135.26 88.03 138.44 106.81 157.22 114.66 135.26"/><path class="cls-1" d="M74.31,72.33a43.71,43.71,0,0,0-3.87,45.91l37.42-12.81Z"/></g></symbol></defs><title>Asset 3</title><g id="Layer_2" data-name="Layer 2"><g id="Layer_1-2" data-name="Layer 1"><g id="V4"><g id="Front"><use width="284.45" height="256.36" transform="scale(1.21)" xlink:href="#MainLogo"/></g></g></g></g></svg>